<?xml version="1.0" encoding="UTF-8"?>
<svg version="1.1" xmlns="http://www.w3.org/2000/svg" width="256" height="256">
<path d="M0 0 C84.48 0 168.96 0 256 0 C256 84.48 256 168.96 256 256 C171.52 256 87.04 256 0 256 C0 171.52 0 87.04 0 0 Z " fill="#231F20" transform="translate(0,0)"/>
<path d="M0 0 C4.19903575 0.3463851 6.54272028 1.52955849 9.4375 4.6875 C12.08274411 8.51780534 11.71586676 12.6801325 11.69287109 17.15283203 C11.69649155 18.00542099 11.700112 18.85800995 11.70384216 19.73643494 C11.71073091 21.58668066 11.71324258 23.43694668 11.71189499 25.28720474 C11.71092857 28.22244186 11.72388781 31.15731392 11.74087524 34.09249878 C11.78709864 42.43761325 11.81173168 50.78269161 11.81835938 59.12792969 C11.82339358 64.23554993 11.84774473 69.34279141 11.88368607 74.45028305 C11.89344425 76.39017327 11.8958379 78.33011588 11.89051437 80.27002335 C11.86023966 91.85046833 12.04726677 100.97302566 18.5625 110.9375 C26.44695757 118.47915507 33.98418582 121.06458187 44.72265625 120.96484375 C52.35651853 120.39491292 59.31043425 117.824057 64.9375 112.53515625 C72.22756833 103.55546271 73.09900344 93.80312038 72.4375 82.6875 C71.78549616 79.82539492 70.97398787 78.26660464 69.4375 75.6875 C68.86 74.676875 68.2825 73.66625 67.6875 72.625 C61.82350967 64.96923485 53.90515599 59.77746433 44.28515625 58.15625 C41.6632792 57.91329614 39.06944276 57.74349878 36.4375 57.6875 C36.4375 58.3475 36.4375 59.0075 36.4375 59.6875 C35.65246094 59.90664062 34.86742187 60.12578125 34.05859375 60.3515625 C24.67085164 63.18516319 19.24420809 66.790377 13.4375 74.6875 C10.97173437 72.22173437 12.20351179 65.74793814 12.1875 62.4375 C12.166875 61.38691406 12.14625 60.33632812 12.125 59.25390625 C12.11984375 58.23683594 12.1146875 57.21976563 12.109375 56.171875 C12.1000293 55.24084961 12.09068359 54.30982422 12.08105469 53.35058594 C12.50795381 50.16112319 13.58211882 48.29253589 15.4375 45.6875 C26.50437755 37.87697448 41.4274494 37.77111747 54.4375 38.6875 C67.2722779 41.49510766 78.59644299 49.53083464 86.19140625 60.13671875 C94.15527704 72.85096861 97.30196121 85.76093446 94.75 100.6875 C91.48075468 114.83152662 84.11844484 126.07666352 72.4375 134.6875 C59.71955731 142.37741884 46.63716005 145.73934612 31.85546875 143.03125 C16.65273803 139.14256915 4.75231032 131.14340964 -3.4375 117.6875 C-8.93856484 107.66588419 -10.68705281 98.28410437 -10.77124023 86.92578125 C-10.78102402 86.0776889 -10.7908078 85.22959656 -10.80088806 84.35580444 C-10.83061926 81.57055186 -10.85215709 78.78534613 -10.87109375 76 C-10.87766558 75.04429108 -10.8842374 74.08858215 -10.89100838 73.10391235 C-10.92349352 68.05138629 -10.94797858 62.99888047 -10.9675293 57.94628906 C-10.98537865 53.77345231 -11.02027259 49.60128667 -11.07006836 45.42871094 C-11.13027778 40.37607556 -11.16100371 35.32406466 -11.17070198 30.27108765 C-11.17924937 28.35094922 -11.19804983 26.4308272 -11.2274456 24.51089478 C-11.26640836 21.82292901 -11.26739006 19.13740041 -11.25952148 16.44921875 C-11.27952209 15.66251801 -11.29952271 14.87581726 -11.32012939 14.0652771 C-11.24946016 8.67055321 -9.74987568 5.92527082 -6.0828104 1.99121094 C-4.03415044 0.2344247 -2.68904251 -0.16836581 0 0 Z " fill="#E4E4E4" transform="translate(85.5625,57.3125)"/>
<path d="M0 0 C0.66 0.33 1.32 0.66 2 1 C1.67402832 1.54817383 1.34805664 2.09634766 1.01220703 2.66113281 C-0.18670817 5.43141928 -0.22877119 7.41059317 -0.1953125 10.421875 C-0.18564453 11.95908203 -0.18564453 11.95908203 -0.17578125 13.52734375 C-0.15902344 14.59082031 -0.14226562 15.65429688 -0.125 16.75 C-0.11597656 17.82894531 -0.10695313 18.90789062 -0.09765625 20.01953125 C-0.07411305 22.67991278 -0.04122799 25.33984336 0 28 C0.77923828 27.07767578 0.77923828 27.07767578 1.57421875 26.13671875 C2.27160156 25.32847656 2.96898438 24.52023438 3.6875 23.6875 C4.37199219 22.88699219 5.05648437 22.08648437 5.76171875 21.26171875 C8.03425574 18.96538556 10.1321574 17.46959099 13 16 C13.66 16 14.32 16 15 16 C15 16.66 15 17.32 15 18 C13.989375 18.474375 12.97875 18.94875 11.9375 19.4375 C6.01973031 22.81736439 2.08024051 28.32288221 -0.4375 34.5625 C-0.623125 35.366875 -0.80875 36.17125 -1 37 C-1.33 37 -1.66 37 -2 37 C-2.0493651 32.05209823 -2.08570269 27.10433917 -2.10986328 22.15625 C-2.11993317 20.47230534 -2.13358988 18.78837821 -2.15087891 17.10449219 C-2.17508426 14.68680499 -2.18647296 12.26934857 -2.1953125 9.8515625 C-2.20563507 9.0963028 -2.21595764 8.34104309 -2.22659302 7.56289673 C-2.22699318 5.7070602 -2.12222716 3.8518072 -2 2 C-1.34 1.34 -0.68 0.68 0 0 Z " fill="#626163" transform="translate(99,103)"/>
</svg>
